<?xml version="1.0" encoding="UTF-8"?>
<!DOCTYPE svg PUBLIC "-//W3C//DTD SVG 1.1//EN" "http://www.w3.org/Graphics/SVG/1.1/DTD/svg11.dtd">
<svg version="1.1" xmlns="http://www.w3.org/2000/svg" xmlns:xlink="http://www.w3.org/1999/xlink" x="0" y="0" width="200" height="150" viewBox="0, 0, 200, 150">
  <g id="Background">
    <rect x="0" y="0" width="200" height="150" fill="#000000" fill-opacity="0"/>
  </g>
  <g id="Layer_1">
    <g>
      <path d="M186.761,75.618 C186.515,78.9 185.145,81.578 182.741,82.789 C178.148,85.098 171.542,81.229 167.977,74.153 C165.799,69.828 165.257,65.307 166.207,61.922 L166.207,61.924 C166.602,62.296 167.004,62.671 167.404,63.046 C174.997,70.082 182.596,74.897 186.761,75.618 L186.761,75.618" fill="#A7A7A7"/>
      <path d="M167.334,113.614 C162.442,112.798 154.426,112.971 147.02,113.76 C144.281,125.865 136.88,125.348 132.653,123.668 C131.686,123.287 130.805,122.904 129.874,122.452 C129.899,122.463 129.852,122.44 129.874,122.452 C135.474,125.208 141.815,126.679 148.488,126.679 C157.577,126.679 165.992,123.861 172.951,119.055 C175.634,117.204 176.001,115.057 167.334,113.614" fill="#A7A7A7"/>
      <path d="M142.231,42.844 C142.76,44.208 139.315,46.828 134.54,48.678 C129.776,50.543 125.468,50.946 124.937,49.579 C124.403,48.214 127.847,45.603 132.625,43.741 C137.395,41.882 141.697,41.479 142.231,42.844" fill="#A7A7A7"/>
      <path d="M186.761,75.618 C186.979,72.638 186.278,69.154 184.584,65.788 C181.013,58.712 174.41,54.843 169.819,57.152 C168.033,58.05 166.822,59.755 166.21,61.919 L166.21,61.924 C166.21,61.924 166.21,61.924 166.21,61.922 C157.049,53.126 151.502,44.334 153.727,41.938 C154.225,41.398 155.069,41.222 156.19,41.373 L156.196,41.373 C172.403,44.365 185.442,56.464 189.781,72.185 L189.778,72.187 C190.139,73.493 190.069,74.5 189.504,75.101 C188.967,75.685 188.022,75.839 186.761,75.618 L186.761,75.618" fill="#A7A7A7"/>
      <path d="M147.747,108.716 C158.455,108.135 166.948,99.27 166.948,88.436 C166.948,77.209 157.859,68.117 146.632,68.117 C142.698,68.117 139.03,69.241 135.919,71.175 C137.862,73.912 139.777,77.186 141.463,81.089 C144.848,88.911 148.239,99.711 147.747,108.716" fill="#A7A7A7"/>
      <path d="M132.611,116.578 C135.849,115.376 141.25,114.383 147.02,113.76 C147.183,113.075 147.322,112.351 147.445,111.582 C147.596,110.654 147.691,109.697 147.744,108.719 C147.375,108.739 147.006,108.75 146.632,108.75 C135.407,108.75 126.321,99.65 126.321,88.439 C126.321,81.148 130.162,74.765 135.919,71.178 C131.513,64.944 126.953,61.553 124.627,60.199 C120.525,57.812 114.109,56.176 109.961,64.348 C107.017,70.127 105.423,76.689 105.423,83.605 C105.423,100.687 115.379,115.459 129.81,122.421 C126.849,120.942 125.765,119.105 132.611,116.578" fill="#A7A7A7"/>
      <path d="M36.017,100.765 L24.208,100.765 L24.208,90.407 L39.333,90.407 C47.899,90.413 47.977,100.765 36.017,100.765 M24.208,75.47 L38.843,75.47 C47.186,75.47 46.775,84.522 37.731,84.522 L24.208,84.522 L24.208,75.47 z M48.024,86.42 C55.028,82.165 53.686,69.615 41.091,69.615 L13.864,69.615 C11.756,69.615 10,71.352 10,73.465 L10,103.175 C10,105.286 11.753,107.036 13.864,107.036 L37.58,107.036 C56.434,107.036 58.788,90.256 48.024,86.42 z" fill="#A7A7A7"/>
      <path d="M95.825,69.621 L56.342,69.621 C54.619,69.621 52.836,71.024 52.836,72.752 C52.836,74.474 54.619,75.875 56.342,75.875 L69.456,75.875 L69.456,103.178 C69.456,105.275 71.206,107.039 73.32,107.039 L79.457,107.039 C81.584,107.039 83.317,105.275 83.317,103.178 L83.317,75.875 L95.823,75.875 C97.542,75.875 99.32,74.477 99.32,72.752 C99.326,71.024 97.545,69.621 95.825,69.621" fill="#A7A7A7"/>
      <path d="M36.017,100.765 L24.208,100.765 L24.208,90.407 L39.333,90.407 C47.899,90.413 47.977,100.765 36.017,100.765 M24.208,75.47 L38.843,75.47 C47.186,75.47 46.775,84.522 37.731,84.522 L24.208,84.522 L24.208,75.47 z M48.024,86.42 C55.028,82.165 53.686,69.615 41.091,69.615 L13.864,69.615 C11.756,69.615 10,71.352 10,73.465 L10,103.175 C10,105.286 11.753,107.036 13.864,107.036 L37.58,107.036 C56.434,107.036 58.788,90.256 48.024,86.42 z" fill="#A7A7A7"/>
      <path d="M95.825,69.621 L56.342,69.621 C54.619,69.621 52.836,71.024 52.836,72.752 C52.836,74.474 54.619,75.875 56.342,75.875 L69.456,75.875 L69.456,103.178 C69.456,105.275 71.206,107.039 73.32,107.039 L79.457,107.039 C81.584,107.039 83.317,105.275 83.317,103.178 L83.317,75.875 L95.823,75.875 C97.542,75.875 99.32,74.477 99.32,72.752 C99.326,71.024 97.545,69.621 95.825,69.621" fill="#A7A7A7"/>
    </g>
  </g>
</svg>
